<?xml version="1.0" encoding="UTF-8" standalone="no"?>
<svg width="24px" height="24px" viewBox="0 0 24 24" version="1.1" xmlns="http://www.w3.org/2000/svg" xmlns:xlink="http://www.w3.org/1999/xlink">
    <!-- Generator: Sketch 48.2 (47327) - http://www.bohemiancoding.com/sketch -->
    <title>brand_MedTrack</title>
    <desc>Created with Sketch.</desc>
    <defs></defs>
    <g id="Action-(162)" stroke="none" stroke-width="1" fill="none" fill-rule="evenodd" transform="translate(-701.000000, -432.000000)">
        <path d="M718.726131,445.763958 L723.667464,445.763958 C724.301369,445.763958 724.819845,446.286362 724.819845,446.925069 L724.819845,454.667089 C724.819845,455.305796 724.301369,455.828968 723.667464,455.828968 L702.152417,455.828968 C701.518512,455.828968 701.000036,455.305796 701.000036,454.667089 L701.000036,446.925069 C701.000036,446.286362 701.518512,445.763958 702.152417,445.763958 L704.413369,445.763958 C705.047274,445.763958 705.80575,446.227251 706.099083,446.793796 L709.624417,453.601554 C709.91775,454.168099 710.329179,454.13816 710.539083,453.535533 L715.332226,439.761877 C715.542131,439.159251 715.84575,439.17115 716.007655,439.789129 L717.279274,444.64123 C717.441179,445.258826 718.092226,445.763958 718.726131,445.763958 Z M720.062045,440.436412 L717.937008,433.059259 C717.769107,432.476938 718.169699,432 718.827477,432 L723.617996,432 C724.275378,432 724.813057,432.492872 724.813057,433.095473 L724.813057,440.399835 C724.813057,441.002436 724.275378,441.495671 723.617996,441.495671 L721.562489,441.495671 C720.905107,441.495671 720.229946,441.018733 720.062045,440.436412 Z M706.91098,441.895051 L702.186275,441.895051 C701.533725,441.895051 701,441.381812 701,440.75431 L701,433.148115 C701,432.520613 701.533725,432.006997 702.186275,432.006997 L713.218039,432.006997 C713.87098,432.006997 714.227843,432.491199 714.012157,433.08363 L710.105882,443.796411 C709.889804,444.388465 709.466275,444.417879 709.164706,443.86165 L708.646275,442.906822 C708.344314,442.350216 707.563529,441.895051 706.91098,441.895051 Z" id="brand_MedTrack" fill="#FFFFFF"></path>
    </g>
</svg>